<?xml version="1.0" standalone="no"?>
<!DOCTYPE svg PUBLIC "-//W3C//DTD SVG 20010904//EN"
 "http://www.w3.org/TR/2001/REC-SVG-20010904/DTD/svg10.dtd">
<svg version="1.0" xmlns="http://www.w3.org/2000/svg"
 width="706.000000pt" height="136.000000pt" viewBox="0 0 706.000000 136.000000"
 preserveAspectRatio="xMidYMid meet">

<g transform="translate(0.000000,136.000000) scale(0.100000,-0.100000)"
fill="#000000" stroke="none">
<path d="M6193 1053 c-51 -4 -53 -5 -53 -33 0 -27 3 -29 43 -32 l42 -3 0 -280
0 -280 -32 -3 c-29 -3 -33 -7 -33 -33 l0 -29 125 0 125 0 0 29 c0 27 -3 30
-37 33 l-38 3 -3 110 c-2 67 2 120 9 137 28 69 118 92 159 41 19 -24 20 -37
18 -157 l-3 -131 -37 -3 c-35 -3 -38 -6 -38 -33 l0 -29 130 0 130 0 0 29 c0
27 -3 30 -37 33 l-38 3 -5 152 c-4 133 -8 155 -26 180 -50 68 -146 81 -224 29
l-40 -26 0 150 0 150 -42 -2 c-24 -1 -67 -3 -95 -5z"/>
<path d="M170 1021 c0 -30 1 -31 50 -31 l50 0 0 -285 0 -285 -50 0 c-49 0 -50
-1 -50 -30 l0 -30 194 0 c162 0 204 3 254 19 146 45 213 149 213 332 0 106
-24 177 -83 243 -75 87 -90 91 -350 94 l-228 3 0 -30z m413 -45 c41 -17 83
-66 97 -114 6 -20 14 -77 17 -127 13 -219 -54 -315 -223 -315 -69 0 -72 1 -78
25 -8 32 -7 531 1 539 12 12 154 6 186 -8z"/>
<path d="M4280 1020 c0 -29 1 -30 50 -30 l50 0 -2 -282 -3 -283 -47 -3 c-46
-3 -48 -5 -48 -33 l0 -29 295 0 295 0 0 83 c0 45 3 106 6 135 l7 52 -30 0
c-28 0 -31 -3 -37 -42 -10 -68 -45 -120 -96 -146 -38 -19 -58 -22 -130 -20
l-85 3 -3 133 -3 132 40 0 c57 0 91 -32 98 -93 5 -44 8 -47 34 -47 l29 0 0
165 0 165 -30 0 c-27 0 -30 -3 -30 -33 0 -31 -21 -73 -44 -89 -6 -4 -30 -8
-53 -8 l-43 0 0 120 0 120 95 0 c138 0 170 -22 200 -140 9 -38 15 -46 38 -48
l27 -3 -6 113 c-3 62 -7 119 -10 126 -2 9 -68 12 -284 12 l-280 0 0 -30z"/>
<path d="M5910 945 c0 -70 -53 -145 -101 -145 -14 0 -19 -8 -20 -27 0 -26 -1
-27 -9 -6 -12 28 -40 43 -85 43 -47 0 -69 -13 -100 -58 l-25 -37 0 48 0 47
-90 0 -90 0 0 -30 c0 -27 3 -30 34 -30 53 0 57 -11 54 -176 l-3 -149 -42 -3
c-24 -2 -43 -8 -43 -14 0 -6 -7 -5 -17 3 -9 8 -30 14 -47 14 l-31 0 -5 155
c-3 99 -10 163 -18 177 -22 40 -70 58 -152 58 -122 0 -195 -51 -188 -132 4
-46 39 -70 82 -53 34 13 42 35 28 74 -10 26 -10 33 5 44 9 6 35 12 58 12 55 0
85 -28 85 -79 l0 -39 -72 -16 c-84 -19 -163 -59 -191 -98 -26 -35 -26 -101 -1
-130 55 -61 188 -63 255 -2 15 13 20 12 47 -16 37 -36 81 -40 130 -10 26 16
32 17 32 5 0 -13 23 -15 145 -15 l145 0 0 29 c0 28 -2 30 -47 33 l-48 3 0 95
c0 84 3 102 28 153 33 66 66 93 60 49 -6 -37 17 -64 52 -64 32 0 65 32 65 63
0 16 7 19 40 19 l41 0 -1 -132 c-1 -73 -1 -146 -1 -161 1 -18 12 -40 30 -58
26 -26 37 -29 89 -29 88 0 131 40 146 138 6 41 6 42 -23 42 -26 0 -29 -4 -34
-41 -8 -57 -37 -86 -74 -73 l-28 9 -3 153 -3 152 66 0 65 0 0 35 0 35 -65 0
-65 0 0 85 0 85 -30 0 c-28 0 -30 -3 -30 -35z m-720 -411 c0 -40 -5 -51 -39
-85 -48 -49 -100 -54 -127 -14 -21 32 -10 80 22 102 32 20 93 42 122 43 20 0
22 -5 22 -46z"/>
<path d="M1385 801 c-87 -40 -128 -110 -128 -216 0 -106 41 -176 128 -216 106
-49 234 3 280 115 21 50 21 152 0 202 -46 112 -174 164 -280 115z m150 -67
c30 -32 41 -78 38 -166 -2 -71 -29 -140 -58 -152 -9 -3 -30 -6 -46 -6 -75 0
-103 48 -103 175 0 130 27 174 107 175 28 0 44 -7 62 -26z"/>
<path d="M2825 801 c-128 -59 -172 -241 -88 -363 51 -74 167 -108 251 -72 43
17 97 67 118 106 14 26 13 28 -12 34 -21 6 -31 0 -57 -31 -61 -74 -142 -82
-197 -19 -16 19 -30 42 -30 52 0 9 -3 27 -6 40 l-6 22 157 0 158 0 -6 56 c-15
149 -153 235 -282 175z m124 -45 c31 -17 51 -54 51 -96 l0 -30 -101 0 c-91 0
-100 2 -95 18 3 9 8 29 12 45 7 32 57 77 85 77 11 0 32 -6 48 -14z"/>
<path d="M3208 812 l-88 -3 0 -29 c0 -27 3 -29 43 -32 l42 -3 3 -162 2 -163
-40 0 c-38 0 -40 -2 -40 -30 l0 -30 145 0 145 0 0 29 c0 29 -2 30 -52 33 l-53
3 1 91 c0 78 4 100 27 146 15 30 36 63 46 72 19 17 20 17 19 -14 -1 -45 23
-65 75 -61 22 1 46 54 39 86 -7 37 -45 67 -87 67 -43 0 -80 -24 -112 -71 l-22
-32 -3 53 -3 53 -87 -3z"/>
<path d="M3654 808 c-61 -13 -106 -63 -112 -127 -4 -48 -3 -53 34 -89 34 -33
51 -41 124 -56 108 -23 120 -30 120 -66 0 -38 -32 -60 -88 -60 -60 0 -98 25
-125 82 -19 40 -26 47 -51 48 -28 0 -29 0 -22 -46 3 -26 6 -69 6 -95 0 -41 3
-49 18 -49 11 0 27 8 36 19 16 18 18 18 54 0 115 -59 261 23 249 140 -7 67
-45 98 -146 122 -45 10 -95 26 -112 34 -42 22 -38 59 8 84 56 29 127 -1 157
-68 15 -31 25 -41 43 -41 21 0 23 4 23 48 0 81 -10 122 -31 122 -10 0 -21 -5
-25 -11 -3 -6 -16 -8 -28 -4 -53 16 -94 20 -132 13z"/>
<path d="M850 780 c0 -28 3 -30 35 -30 51 0 56 -18 53 -182 l-3 -143 -42 -3
c-40 -3 -43 -5 -43 -33 l0 -29 145 0 145 0 0 30 c0 29 -1 30 -50 30 l-50 0 0
93 c0 96 14 142 61 208 25 35 38 37 32 5 -10 -49 29 -82 75 -65 32 12 45 54
31 96 -13 40 -34 53 -87 53 -47 0 -84 -26 -112 -78 l-19 -37 -1 58 0 57 -85 0
-85 0 0 -30z"/>
<path d="M1690 780 c0 -27 3 -30 34 -30 22 0 36 -6 40 -16 3 -9 6 -121 6 -249
l0 -234 -37 -3 c-33 -3 -38 -7 -41 -31 l-3 -27 131 0 131 0 -3 28 c-3 23 -8
27 -40 30 l-38 3 0 75 0 75 28 -21 c56 -41 146 -36 208 12 73 58 98 216 49
314 -35 70 -75 97 -150 102 -54 3 -64 1 -102 -27 l-43 -31 0 30 0 30 -85 0
-85 0 0 -30z m332 -44 c30 -22 48 -81 48 -156 0 -112 -30 -163 -96 -163 -82 0
-128 120 -94 245 19 68 97 109 142 74z"/>
<path d="M2190 780 c0 -27 3 -30 34 -30 22 0 36 -6 40 -16 3 -9 6 -121 6 -249
l0 -234 -37 -3 c-33 -3 -38 -7 -41 -31 l-3 -27 131 0 131 0 -3 28 c-3 23 -8
27 -40 30 l-38 3 0 75 0 75 28 -21 c88 -65 220 -16 267 97 25 58 20 170 -10
229 -35 70 -75 97 -150 102 -54 3 -64 1 -102 -27 l-43 -31 0 30 0 30 -85 0
-85 0 0 -30z m330 -40 c52 -28 69 -226 24 -286 -41 -55 -103 -52 -147 7 -24
33 -34 138 -18 196 19 71 88 111 141 83z"/>
<path d="M4046 465 c-26 -27 -29 -56 -9 -84 29 -38 74 -40 102 -5 25 32 26 52
5 82 -18 26 -74 30 -98 7z"/>
</g>
</svg>
